<svg width="13" height="15" viewBox="0 0 13 15" fill="none" xmlns="http://www.w3.org/2000/svg">
<path fill-rule="evenodd" clip-rule="evenodd" d="M2.2333 1.63307C1.93875 1.63307 1.69997 1.87186 1.69997 2.16641V12.8331C1.69997 13.1276 1.93875 13.3664 2.2333 13.3664H10.7666C11.0611 13.3664 11.3 13.1276 11.3 12.8331V4.52066L8.41238 1.63307H2.2333ZM0.633301 2.16641C0.633301 1.28275 1.34964 0.566406 2.2333 0.566406H8.6333C8.77475 0.566406 8.91041 0.622598 9.01042 0.72262L12.1323 3.84451C12.2824 3.99454 12.3666 4.19802 12.3666 4.41019V12.8331C12.3666 13.7167 11.6503 14.4331 10.7666 14.4331H2.2333C1.34964 14.4331 0.633301 13.7167 0.633301 12.8331V2.16641ZM3.56663 7.49974C3.56663 7.20519 3.80542 6.96641 4.09997 6.96641H5.96663V5.09974C5.96663 4.80519 6.20542 4.56641 6.49997 4.56641C6.79452 4.56641 7.0333 4.80519 7.0333 5.09974V6.96641H8.89997C9.19447 6.96641 9.4333 7.20519 9.4333 7.49974C9.4333 7.79429 9.19447 8.03307 8.89997 8.03307H7.0333V9.89974C7.0333 10.1942 6.79452 10.4331 6.49997 10.4331C6.20542 10.4331 5.96663 10.1942 5.96663 9.89974V8.03307H4.09997C3.80542 8.03307 3.56663 7.79429 3.56663 7.49974Z" fill="#0091FF"/>
</svg>
