<svg width="10" height="14" viewBox="0 0 10 14" fill="none" xmlns="http://www.w3.org/2000/svg">
<path fill-rule="evenodd" clip-rule="evenodd" d="M2.86662 0.566406C2.57207 0.566406 2.33328 0.80519 2.33328 1.09974C2.33328 1.39429 2.57207 1.63307 2.86662 1.63307H7.13329C7.42783 1.63307 7.66662 1.39429 7.66662 1.09974C7.66662 0.80519 7.42783 0.566406 7.13329 0.566406H2.86662ZM0.199951 3.23307C0.199951 2.93852 0.438735 2.69974 0.733285 2.69974H2.33328H7.66662H9.26662C9.56112 2.69974 9.79995 2.93852 9.79995 3.23307C9.79995 3.52762 9.56112 3.76641 9.26662 3.76641H8.73328V12.2997C8.73328 12.8889 8.25574 13.3664 7.66662 13.3664H2.33328C1.74419 13.3664 1.26662 12.8889 1.26662 12.2997V3.76641H0.733285C0.438735 3.76641 0.199951 3.52762 0.199951 3.23307ZM2.33328 3.76641H7.66662V12.2997H2.33328V3.76641Z" fill="#E5484D"/>
</svg>
