<svg width="22" height="22" viewBox="0 0 22 22" fill="none" xmlns="http://www.w3.org/2000/svg">
<g clip-path="url(#clip0_1_62480)">
<path d="M20.1666 10.1566V11C20.1655 12.9767 19.5254 14.9001 18.3418 16.4833C17.1582 18.0665 15.4946 19.2247 13.599 19.7852C11.7034 20.3457 9.67741 20.2784 7.82318 19.5933C5.96896 18.9083 4.38585 17.6422 3.30997 15.984C2.23408 14.3257 1.72306 12.364 1.85312 10.3916C1.98318 8.41916 2.74736 6.54161 4.03168 5.03896C5.31599 3.53631 7.05164 2.48908 8.97976 2.05344C10.9079 1.61781 12.9252 1.81712 14.7308 2.62164" stroke="#12A594" stroke-width="2" stroke-linecap="round" stroke-linejoin="round"/>
<path d="M20.1667 3.66669L11 12.8425L8.25 10.0925" stroke="#12A594" stroke-width="2" stroke-linecap="round" stroke-linejoin="round"/>
</g>
<defs>
<clipPath id="clip0_1_62480">
<rect width="22" height="22" fill="white"/>
</clipPath>
</defs>
</svg>
