<svg width="36" height="36" viewBox="0 0 36 36" fill="none" xmlns="http://www.w3.org/2000/svg">
<rect width="36" height="36" rx="18" fill="#F1F3F5"/>
<path d="M12.975 8.83398H10.525C9.46671 8.83398 8.83337 9.46732 8.83337 10.5257V12.9757C8.83337 14.034 9.46671 14.6673 10.525 14.6673H12.975C14.0334 14.6673 14.6667 14.034 14.6667 12.9757V10.5257C14.6667 9.46732 14.0334 8.83398 12.975 8.83398ZM13.3917 12.634C13.6 12.8423 13.6 13.184 13.3917 13.3923C13.2834 13.4923 13.1417 13.5423 13.0084 13.5423C12.875 13.5423 12.7417 13.4923 12.6334 13.3923L11.7417 12.509L10.875 13.3923C10.7667 13.4923 10.6334 13.5423 10.4834 13.5423C10.35 13.5423 10.2167 13.4923 10.1084 13.3923C9.90004 13.184 9.90004 12.8423 10.1084 12.634L11 11.7507L10.1167 10.8757C9.90837 10.6673 9.90837 10.3257 10.1167 10.1173C10.325 9.90898 10.6667 9.90898 10.875 10.1173L11.7417 11.0007L12.625 10.1173C12.8334 9.90898 13.175 9.90898 13.3834 10.1173C13.5917 10.3257 13.5917 10.6673 13.3834 10.8757L12.5084 11.7507L13.3917 12.634Z" fill="#FFA01C"/>
<path opacity="0.4" d="M21.8584 9.66602H14.4834C14.6 9.90768 14.6667 10.191 14.6667 10.5243V12.9743C14.6667 14.0327 14.0334 14.666 12.975 14.666H10.525C10.3667 14.666 10.225 14.6493 10.0834 14.616V22.2743C10.0834 24.516 11.9 26.3327 14.1417 26.3327H20.7834C20.925 26.3327 21.0667 26.2827 21.175 26.166C22.4084 24.9243 24.5584 22.7577 25.7667 21.541C25.875 21.4327 25.9167 21.3077 25.9167 21.1827V13.7243C25.9167 11.4827 24.1 9.66602 21.8584 9.66602Z" fill="#FFA01C"/>
<path d="M25.9167 21.1837C25.9167 21.3087 25.875 21.4337 25.7667 21.5421C24.5584 22.7587 22.4084 24.9254 21.175 26.1671C21.0667 26.2837 20.925 26.3337 20.7834 26.3337C20.5084 26.3337 20.2417 26.1171 20.2417 25.8004V22.8837C20.2417 21.6671 21.275 20.6587 22.5417 20.6587C23.3334 20.6504 24.4334 20.6504 25.375 20.6504C25.7 20.6504 25.9167 20.9087 25.9167 21.1837Z" fill="#FFA01C"/>
<path d="M20.3166 18.5918H14.1333C13.7833 18.5918 13.5083 18.3085 13.5083 17.9668C13.5083 17.6251 13.7916 17.3418 14.1333 17.3418H20.3166C20.6666 17.3418 20.9416 17.6251 20.9416 17.9668C20.9416 18.3085 20.6666 18.5918 20.3166 18.5918Z" fill="#FFA01C"/>
<path d="M18 21.6836H14.1333C13.7833 21.6836 13.5083 21.4003 13.5083 21.0586C13.5083 20.7086 13.7916 20.4336 14.1333 20.4336H18C18.35 20.4336 18.625 20.7169 18.625 21.0586C18.625 21.4003 18.35 21.6836 18 21.6836Z" fill="#FFA01C"/>
</svg>
