<svg width="36" height="36" viewBox="0 0 36 36" fill="none" xmlns="http://www.w3.org/2000/svg">
<rect width="36" height="36" rx="18" fill="#F1F3F5"/>
<path d="M22.8333 17.666H20.3333C19.4166 17.666 18.6666 16.916 18.6666 15.9993V14.3327C18.6666 13.416 19.4166 12.666 20.3333 12.666H22.8333C23.75 12.666 24.5 13.416 24.5 14.3327V15.9993C24.5 16.916 23.75 17.666 22.8333 17.666Z" fill="#94BA2C"/>
<path d="M34.3333 16.8333H31.3332C30.7832 16.8333 30.3333 16.3833 30.3333 15.8333V14.5C30.3333 13.95 30.7832 13.5 31.3332 13.5H34.3333C34.8833 13.5 35.3333 13.95 35.3333 14.5V15.8333C35.3333 16.3833 34.8833 16.8333 34.3333 16.8333Z" fill="#94BA2C"/>
<path d="M34.3333 23.0833H31.3332C30.7832 23.0833 30.3333 22.6333 30.3333 22.0833V20.75C30.3333 20.2 30.7832 19.75 31.3332 19.75H34.3333C34.8833 19.75 35.3333 20.2 35.3333 20.75V22.0833C35.3333 22.6333 34.8833 23.0833 34.3333 23.0833Z" fill="#94BA2C"/>
<path opacity="0.37" d="M30.3333 22.041C30.675 22.041 30.9583 21.7577 30.9583 21.416C30.9583 21.0743 30.675 20.791 30.3333 20.791H28.0417V15.791H30.3333C30.675 15.791 30.9583 15.5077 30.9583 15.166C30.9583 14.8243 30.675 14.541 30.3333 14.541H24.5C24.1583 14.541 23.875 14.8243 23.875 15.166C23.875 15.5077 24.1583 15.791 24.5 15.791H26.7917V25.9993C26.7917 27.266 27.8167 28.291 29.0833 28.291H30.3333C30.675 28.291 30.9583 28.0077 30.9583 27.666C30.9583 27.3243 30.675 27.041 30.3333 27.041H29.0833C28.5083 27.041 28.0417 26.5743 28.0417 25.9993V22.041H30.3333Z" fill="#94BA2C"/>
<path d="M34.3333 29.3333H31.3332C30.7832 29.3333 30.3333 28.8833 30.3333 28.3333V27C30.3333 26.45 30.7832 26 31.3332 26H34.3333C34.8833 26 35.3333 26.45 35.3333 27V28.3333C35.3333 28.8833 34.8833 29.3333 34.3333 29.3333Z" fill="#94BA2C"/>
</svg>
