<svg width="36" height="36" viewBox="0 0 36 36" fill="none" xmlns="http://www.w3.org/2000/svg">
<rect width="36" height="36" rx="18" fill="#F1F3F5"/>
<path opacity="0.4" d="M26.2083 17.5078L25.6916 23.1578C25.5166 24.8245 24.8333 26.5245 21.1666 26.5245H14.8166C11.15 26.5245 10.4666 24.8245 10.3 23.1661L9.79163 17.7411C9.79996 17.7495 9.80829 17.7578 9.82496 17.7661C10.1083 17.9495 10.3833 18.1328 10.6833 18.2995C10.8 18.3745 10.925 18.4411 11.05 18.5078C11.9916 19.0245 13 19.4328 14.0416 19.7161C14.4583 19.8411 14.8833 19.9328 15.3166 20.0078C15.4833 21.3411 16.625 22.3745 18 22.3745C19.3916 22.3745 20.5416 21.3161 20.6916 19.9578V19.9495C21.1166 19.8661 21.5416 19.7578 21.9583 19.6328C23 19.3078 24.0083 18.8745 24.95 18.3245C25 18.2995 25.0416 18.2745 25.075 18.2495C25.4583 18.0411 25.825 17.7995 26.175 17.5495C26.1916 17.5411 26.2 17.5245 26.2083 17.5078Z" fill="#6E56CF"/>
<path d="M25.575 13.8163C24.8667 13.0329 23.6917 12.6413 21.9667 12.6413H21.7667V12.6079C21.7667 11.2079 21.7667 9.47461 18.6333 9.47461H17.3667C14.2333 9.47461 14.2333 11.2079 14.2333 12.6079V12.6413H14.0333C12.3083 12.6413 11.125 13.0329 10.425 13.8163C9.59999 14.7413 9.62499 15.9663 9.70832 16.8079L9.71666 16.8663L9.79166 17.7413C9.79999 17.7496 9.81666 17.7579 9.83332 17.7663C10.1167 17.9496 10.3917 18.1329 10.6917 18.2996C10.8083 18.3746 10.9333 18.4413 11.0583 18.5079C12 19.0246 13.0083 19.4329 14.0417 19.7163C14.0667 21.8746 15.8333 23.6246 18 23.6246C20.1833 23.6246 21.9583 21.8496 21.9583 19.6663V19.6329C23.0083 19.3163 24.0167 18.8746 24.9583 18.3246C25.0083 18.2996 25.0417 18.2746 25.0833 18.2496C25.4667 18.0413 25.8333 17.7996 26.1833 17.5496C26.1917 17.5413 26.2083 17.5246 26.2167 17.5079L26.25 17.2079L26.2917 16.8163C26.3 16.7663 26.3 16.7246 26.3083 16.6663C26.375 15.8329 26.3583 14.6829 25.575 13.8163ZM15.425 12.6079C15.425 11.1913 15.425 10.6579 17.3667 10.6579H18.6333C20.575 10.6579 20.575 11.1913 20.575 12.6079V12.6413H15.425V12.6079ZM18 22.3746C16.625 22.3746 15.4833 21.3413 15.3167 20.0079C15.3 19.8996 15.2917 19.7829 15.2917 19.6663C15.2917 18.1746 16.5083 16.9579 18 16.9579C19.4917 16.9579 20.7083 18.1746 20.7083 19.6663C20.7083 19.7663 20.7 19.8579 20.6917 19.9496V19.9579C20.5417 21.3163 19.3917 22.3746 18 22.3746Z" fill="#6E56CF"/>
<path d="M17.5249 21.3583C17.3666 21.3583 17.2083 21.3 17.0833 21.175L16.2583 20.3583C16.0166 20.1166 16.0166 19.7166 16.2583 19.475C16.4999 19.2333 16.8999 19.2333 17.1416 19.475L17.5416 19.875L18.8833 18.6416C19.1333 18.4083 19.5333 18.425 19.7666 18.675C19.9999 18.925 19.9833 19.325 19.7333 19.5583L17.9583 21.2C17.8249 21.3 17.6749 21.3583 17.5249 21.3583Z" fill="#6E56CF"/>
</svg>
