<svg width="36" height="36" viewBox="0 0 36 36" fill="none" xmlns="http://www.w3.org/2000/svg">
<rect width="36" height="36" rx="18" fill="#F1F3F5"/>
<path d="M26.3333 12.9994V15.0161C26.3333 16.3328 25.4999 17.1661 24.1833 17.1661H21.3333V11.3411C21.3333 10.4161 22.0916 9.65775 23.0166 9.66608C23.9249 9.67442 24.7583 10.0411 25.3583 10.6411C25.9583 11.2494 26.3333 12.0828 26.3333 12.9994Z" fill="#006ADC"/>
<path opacity="0.4" d="M9.66663 13.8327V25.4993C9.66663 26.191 10.45 26.5827 11 26.166L12.425 25.0993C12.7583 24.8493 13.225 24.8827 13.525 25.1827L14.9083 26.5744C15.2333 26.8994 15.7666 26.8994 16.0916 26.5744L17.4916 25.1743C17.7833 24.8827 18.25 24.8493 18.575 25.0993L20 26.166C20.55 26.5743 21.3333 26.1827 21.3333 25.4993V11.3327C21.3333 10.416 22.0833 9.66602 23 9.66602H13.8333H13C10.5 9.66602 9.66663 11.1577 9.66663 12.9993V13.8327Z" fill="#006ADC"/>
<path d="M18 18.2168H15.5C15.1583 18.2168 14.875 18.5001 14.875 18.8418C14.875 19.1835 15.1583 19.4668 15.5 19.4668H18C18.3417 19.4668 18.625 19.1835 18.625 18.8418C18.625 18.5001 18.3417 18.2168 18 18.2168Z" fill="#006ADC"/>
<path d="M15.5 16.1348H18C18.3417 16.1348 18.625 15.8514 18.625 15.5098C18.625 15.1681 18.3417 14.8848 18 14.8848H15.5C15.1583 14.8848 14.875 15.1681 14.875 15.5098C14.875 15.8514 15.1583 16.1348 15.5 16.1348Z" fill="#006ADC"/>
<path d="M12.9751 14.6758C12.5084 14.6758 12.1417 15.0508 12.1417 15.5091C12.1417 15.9674 12.5167 16.3424 12.9751 16.3424C13.4334 16.3424 13.8084 15.9674 13.8084 15.5091C13.8084 15.0508 13.4334 14.6758 12.9751 14.6758Z" fill="#006ADC"/>
<path d="M12.9751 18.0098C12.5084 18.0098 12.1417 18.3848 12.1417 18.8431C12.1417 19.3014 12.5167 19.6764 12.9751 19.6764C13.4334 19.6764 13.8084 19.3014 13.8084 18.8431C13.8084 18.3848 13.4334 18.0098 12.9751 18.0098Z" fill="#006ADC"/>
</svg>
