<svg width="36" height="36" viewBox="0 0 36 36" fill="none" xmlns="http://www.w3.org/2000/svg">
<rect width="36" height="36" rx="18" fill="#F1F3F5"/>
<path d="M23.6084 20.2252L20.15 23.6836C20.0167 23.8169 19.8917 24.0752 19.8584 24.2586L19.6667 25.5836C19.6 26.0586 19.9334 26.4002 20.4084 26.3252L21.7334 26.1336C21.9167 26.1086 22.175 25.9752 22.3084 25.8419L25.7667 22.3836C26.3584 21.7919 26.6417 21.0919 25.7667 20.2169C24.9 19.3502 24.2084 19.6252 23.6084 20.2252Z" fill="#006ADC"/>
<path d="M23.1167 20.7168C23.4084 21.7668 24.2334 22.5834 25.2834 22.8834L23.1167 20.7168Z" fill="#006ADC"/>
<path opacity="0.4" d="M9.69172 20.1914C9.69172 20.2164 9.67505 20.2497 9.67505 20.2747C10.4417 21.8081 11.6917 23.0664 13.2251 23.8247C13.2501 23.8247 13.2834 23.8081 13.3084 23.8081C13.025 22.8414 12.8084 21.8497 12.6501 20.8581C11.6501 20.6914 10.6584 20.4747 9.69172 20.1914Z" fill="#006ADC"/>
<path opacity="0.4" d="M23.8916 13.3588C23.1082 11.7172 21.7832 10.3922 20.1499 9.61719C20.4499 10.6089 20.6999 11.6255 20.8666 12.6422C21.8832 12.8089 22.8999 13.0505 23.8916 13.3588Z" fill="#006ADC"/>
<path opacity="0.4" d="M9.60828 13.3586C10.6083 13.0586 11.625 12.8086 12.6416 12.6419C12.8083 11.6503 13.0166 10.6669 13.2999 9.70028C13.2749 9.70028 13.2416 9.68359 13.2166 9.68359C11.6499 10.4586 10.3749 11.7669 9.60828 13.3586Z" fill="#006ADC"/>
<path opacity="0.4" d="M19.5166 12.4659C19.3166 11.3825 19.0666 10.2992 18.7083 9.24923C18.6916 9.19089 18.6916 9.1409 18.6833 9.07423C18.0666 8.92423 17.4166 8.82422 16.7499 8.82422C16.0749 8.82422 15.4333 8.9159 14.8083 9.07423C14.7999 9.13257 14.8083 9.18256 14.7916 9.24923C14.4416 10.2992 14.1833 11.3825 13.9833 12.4659C15.8249 12.2659 17.675 12.2659 19.5166 12.4659Z" fill="#006ADC"/>
<path opacity="0.4" d="M12.4666 13.9824C11.3749 14.1824 10.2999 14.4324 9.24995 14.7908C9.19161 14.8074 9.14161 14.8074 9.07494 14.8158C8.92494 15.4324 8.82495 16.0824 8.82495 16.7491C8.82495 17.4241 8.91661 18.0658 9.07494 18.6908C9.13327 18.6991 9.18328 18.6908 9.24995 18.7074C10.2999 19.0574 11.3749 19.3158 12.4666 19.5158C12.2666 17.6741 12.2666 15.8241 12.4666 13.9824Z" fill="#006ADC"/>
<path opacity="0.4" d="M24.4166 14.8158C24.3582 14.8158 24.3082 14.8074 24.2416 14.7908C23.1916 14.4408 22.1082 14.1824 21.0249 13.9824C21.2332 15.8241 21.2332 17.6741 21.0249 19.5074C22.1082 19.3074 23.1916 19.0574 24.2416 18.6991C24.2999 18.6824 24.3499 18.6908 24.4166 18.6824C24.5666 18.0574 24.6666 17.4158 24.6666 16.7408C24.6666 16.0824 24.5749 15.4408 24.4166 14.8158Z" fill="#006ADC"/>
<path opacity="0.4" d="M13.9833 21.0332C14.1833 22.1249 14.4333 23.1999 14.7916 24.2499C14.8083 24.3082 14.7999 24.3582 14.8083 24.4249C15.4333 24.5749 16.0749 24.6749 16.7499 24.6749C17.4166 24.6749 18.0666 24.5832 18.6833 24.4249C18.6916 24.3665 18.6916 24.3165 18.7083 24.2499C19.0583 23.1999 19.3166 22.1249 19.5166 21.0332C18.6 21.1332 17.6749 21.2082 16.7499 21.2082C15.8249 21.1999 14.8999 21.1332 13.9833 21.0332Z" fill="#006ADC"/>
<path opacity="0.4" d="M13.7916 13.791C13.5416 15.7577 13.5416 17.741 13.7916 19.716C15.7583 19.966 17.7416 19.966 19.7166 19.716C19.9666 17.7493 19.9666 15.766 19.7166 13.791C17.7416 13.541 15.7583 13.541 13.7916 13.791Z" fill="#006ADC"/>
</svg>
