<svg width="36" height="36" viewBox="0 0 36 36" fill="none" xmlns="http://www.w3.org/2000/svg">
<rect width="36" height="36" rx="18" fill="#F1F3F5"/>
<path d="M21.9583 10.966V9.66602C21.9583 9.32435 21.675 9.04102 21.3333 9.04102C20.9917 9.04102 20.7083 9.32435 20.7083 9.66602V10.916H15.2917V9.66602C15.2917 9.32435 15.0083 9.04102 14.6667 9.04102C14.325 9.04102 14.0417 9.32435 14.0417 9.66602V10.966C11.7917 11.1743 10.7 12.516 10.5333 14.5077C10.5167 14.7493 10.7167 14.9493 10.95 14.9493H25.05C25.2917 14.9493 25.4917 14.741 25.4667 14.5077C25.3 12.516 24.2083 11.1743 21.9583 10.966Z" fill="#40C4AA"/>
<path opacity="0.4" d="M25.5 17.0331V18.4831C25.5 18.9914 25.05 19.3831 24.55 19.2997C24.3167 19.2664 24.075 19.2414 23.8333 19.2414C21.3083 19.2414 19.25 21.2997 19.25 23.8247C19.25 24.2081 19.4 24.7414 19.5583 25.2248C19.7417 25.7664 19.3417 26.3247 18.7667 26.3247H14.6667C11.75 26.3247 10.5 24.6581 10.5 22.1581V17.0247C10.5 16.5664 10.875 16.1914 11.3333 16.1914H24.6667C25.125 16.1997 25.5 16.5747 25.5 17.0331Z" fill="#40C4AA"/>
<path d="M23.8333 20.5C21.9917 20.5 20.5 21.9917 20.5 23.8333C20.5 24.4583 20.675 25.05 20.9833 25.55C21.5583 26.5167 22.6167 27.1667 23.8333 27.1667C25.05 27.1667 26.1083 26.5167 26.6833 25.55C26.9917 25.05 27.1667 24.4583 27.1667 23.8333C27.1667 21.9917 25.675 20.5 23.8333 20.5ZM25.5583 23.475L23.7833 25.1167C23.6667 25.225 23.5083 25.2833 23.3583 25.2833C23.2 25.2833 23.0417 25.225 22.9167 25.1L22.0917 24.275C21.85 24.0333 21.85 23.6333 22.0917 23.3917C22.3333 23.15 22.7333 23.15 22.975 23.3917L23.375 23.7917L24.7083 22.5583C24.9583 22.325 25.3583 22.3417 25.5917 22.5917C25.825 22.8417 25.8083 23.2333 25.5583 23.475Z" fill="#40C4AA"/>
<path d="M15.0833 20.4994C14.8667 20.4994 14.65 20.4078 14.4917 20.2578C14.3417 20.0994 14.25 19.8828 14.25 19.6661C14.25 19.4494 14.3417 19.2328 14.4917 19.0744C14.6833 18.8828 14.975 18.7911 15.25 18.8494C15.3 18.8578 15.35 18.8744 15.4 18.8994C15.45 18.9161 15.5 18.9411 15.55 18.9745C15.5917 19.0078 15.6333 19.0411 15.675 19.0744C15.825 19.2328 15.9167 19.4494 15.9167 19.6661C15.9167 19.8828 15.825 20.0994 15.675 20.2578C15.6333 20.2911 15.5917 20.3244 15.55 20.3578C15.5 20.3911 15.45 20.4161 15.4 20.4328C15.35 20.4578 15.3 20.4744 15.25 20.4828C15.1917 20.4911 15.1333 20.4994 15.0833 20.4994Z" fill="#40C4AA"/>
<path d="M18 20.5C17.7833 20.5 17.5666 20.4083 17.4083 20.2583C17.2583 20.1 17.1666 19.8833 17.1666 19.6667C17.1666 19.45 17.2583 19.2333 17.4083 19.075C17.725 18.7667 18.2833 18.7667 18.5916 19.075C18.7416 19.2333 18.8333 19.45 18.8333 19.6667C18.8333 19.8833 18.7416 20.1 18.5916 20.2583C18.4333 20.4083 18.2166 20.5 18 20.5Z" fill="#40C4AA"/>
<path d="M15.0833 23.4157C14.8667 23.4157 14.65 23.3241 14.4917 23.1741C14.3417 23.0157 14.25 22.7991 14.25 22.5824C14.25 22.3657 14.3417 22.1491 14.4917 21.9908C14.575 21.9158 14.6583 21.8574 14.7667 21.8157C15.075 21.6824 15.4417 21.7574 15.675 21.9908C15.825 22.1491 15.9167 22.3657 15.9167 22.5824C15.9167 22.7991 15.825 23.0157 15.675 23.1741C15.5167 23.3241 15.3 23.4157 15.0833 23.4157Z" fill="#40C4AA"/>
</svg>
