<svg width="36" height="36" viewBox="0 0 36 36" fill="none" xmlns="http://www.w3.org/2000/svg">
<rect width="36" height="36" rx="18" fill="#F1F3F5"/>
<path d="M18 17.9993C20.3012 17.9993 22.1667 16.1339 22.1667 13.8327C22.1667 11.5315 20.3012 9.66602 18 9.66602C15.6989 9.66602 13.8334 11.5315 13.8334 13.8327C13.8334 16.1339 15.6989 17.9993 18 17.9993Z" fill="#E5484D"/>
<path opacity="0.4" d="M17.9999 20.084C13.8249 20.084 10.4249 22.884 10.4249 26.334C10.4249 26.5673 10.6083 26.7507 10.8416 26.7507H25.1583C25.3916 26.7507 25.575 26.5673 25.575 26.334C25.575 22.884 22.1749 20.084 17.9999 20.084Z" fill="#E5484D"/>
<path d="M25.8583 20.2828C25.1083 19.5328 24.5166 19.7745 24.0083 20.2828L21.0583 23.2328C20.9416 23.3495 20.8333 23.5661 20.8083 23.7245L20.6499 24.8494C20.5916 25.2578 20.875 25.5411 21.2833 25.4828L22.4083 25.3244C22.5666 25.2994 22.7916 25.1911 22.9 25.0745L25.8499 22.1245C26.3666 21.6245 26.6083 21.0328 25.8583 20.2828Z" fill="#E5484D"/>
</svg>
